<svg viewBox="0.0 0.0 512.0 512.0" fill="none" stroke-linecap="square" stroke-miterlimit="10" xmlns="http://www.w3.org/2000/svg"><clipPath id="a"><path d="M0 0h512v512H0V0z"/></clipPath><g clip-path="url(#a)"><path fill="none" d="M0 0h512v512H0z"/><path fill="#4caf50" d="M68.257 87.127c0-42.086 34.118-76.204 76.205-76.204 20.21 0 39.594 8.028 53.885 22.32 14.29 14.29 22.32 33.674 22.32 53.884 0 42.087-34.118 76.205-76.205 76.205-42.087 0-76.205-34.118-76.205-76.205zM68.257 256c0-42.087 34.118-76.205 76.205-76.205 20.21 0 39.594 8.03 53.885 22.32 14.29 14.29 22.32 33.674 22.32 53.885 0 42.087-34.118 76.205-76.205 76.205-42.087 0-76.205-34.118-76.205-76.205zM68.257 424.873c0-42.087 34.118-76.205 76.205-76.205 20.21 0 39.594 8.03 53.885 22.32 14.29 14.29 22.32 33.674 22.32 53.885 0 42.086-34.118 76.204-76.205 76.204-42.087 0-76.205-34.118-76.205-76.204zM284.257 87.127c0-42.086 34.118-76.204 76.205-76.204 20.21 0 39.594 8.028 53.885 22.32 14.29 14.29 22.32 33.674 22.32 53.884 0 42.087-34.118 76.205-76.205 76.205-42.087 0-76.205-34.118-76.205-76.205zM284.257 256c0-42.087 34.118-76.205 76.205-76.205 20.21 0 39.594 8.03 53.885 22.32 14.29 14.29 22.32 33.674 22.32 53.885 0 42.087-34.118 76.205-76.205 76.205-42.087 0-76.205-34.118-76.205-76.205zM284.257 424.873c0-42.087 34.118-76.205 76.205-76.205 20.21 0 39.594 8.03 53.885 22.32 14.29 14.29 22.32 33.674 22.32 53.885 0 42.086-34.118 76.204-76.205 76.204-42.087 0-76.205-34.118-76.205-76.204z" fill-rule="evenodd"/></g></svg>